<svg xmlns="http://www.w3.org/2000/svg" version="1.1" xmlns:xlink="http://www.w3.org/1999/xlink" xmlns:svgjs="http://svgjs.com/svgjs" width="512" height="512" x="0" y="0" viewBox="0 0 512 512" style="enable-background:new 0 0 512 512" xml:space="preserve" class=""><g><path fill="#d3a13d" d="M148.94 473.32H50.86a22 22 0 0 0-22 22v4h142.08v-4a22 22 0 0 0-22-22z" data-original="#d3a13d"></path><path fill="#a07d6d" d="M113.41 301.48H85.9v147.28h28V301.48z" data-original="#a07d6d"></path><path fill="#c79a83" d="M85.9 43.76v257.72H113.9V43.76z" data-original="#c79a83"></path><path fill="#edb740" d="M119.91 447.31H79.89a22.013 22.013 0 0 0-22.02 22.01v4h84.05v-4a22 22 0 0 0-22.01-22.01zM99.9 13.33a27.748 27.748 0 0 0-28 27.5v4.5h56v-4.5a27.755 27.755 0 0 0-28-27.5z" data-original="#edb740"></path><path fill="#f4f8fc" d="m225.12 134.8-.05.07.01 76.91.04.07h257.9V134.8z" data-original="#f4f8fc" class=""></path><path fill="#262626" d="M107.02 56.58h372a4 4 0 0 1 4 4v74.22h-257.9l-.05.07-121-76.85-.07-.06a3.96 3.96 0 0 1 3.02-1.38z" data-original="#262626" class=""></path><path fill="#018c3a" d="m104.07 288.63 121.01-76.85.04.07h257.9v74.22a4 4 0 0 1-4 4h-372a4.017 4.017 0 0 1-3.02-1.37z" data-original="#018c3a"></path><path fill="#df0b18" d="m104.07 58.02-.07-.06a4 4 0 0 0-.98 2.62v225.49a3.988 3.988 0 0 0 .98 2.63l.07-.07 181.55-115.3z" data-original="#df0b18"></path><path fill="#f4f8fc" d="m180.57 179.33-12.87 1.98.98 12.99-9.54-8.86-9.62 8.86.96-12.99-12.91-1.98 10.81-7.38-6.53-11.27 12.48 3.82 4.81-12.15 4.75 12.15 12.44-3.82-6.51 11.27z" data-original="#f4f8fc" class=""></path><path fill="#0a0a0a" d="M133.02 76.407V60.58a4 4 0 0 1 4-4h-30a3.96 3.96 0 0 0-3.02 1.38l.07.06z" data-original="#0a0a0a"></path><path fill="#016b2c" d="M133.02 286.07v-15.825L106.634 287l-2.564 1.628-.035.035-.035.037a4.017 4.017 0 0 0 3.02 1.37h30a4 4 0 0 1-4-4z" data-original="#016b2c"></path><path fill="#bc0c1d" d="m106.634 287 26.386-16.758V76.407L104.07 58.02l-.07-.06a4 4 0 0 0-.98 2.62v225.49a3.988 3.988 0 0 0 .98 2.63l.035-.035.035-.035z" data-original="#bc0c1d"></path><path fill="#df0b18" d="m106.634 287.002-2.564 1.628-.035.035.035-.035z" data-original="#df0b18"></path></g></svg>