<svg xmlns="http://www.w3.org/2000/svg" version="1.1" xmlns:xlink="http://www.w3.org/1999/xlink" xmlns:svgjs="http://svgjs.com/svgjs" width="512" height="512" x="0" y="0" viewBox="0 0 512 512" style="enable-background:new 0 0 512 512" xml:space="preserve" class=""><g><path fill="#d3a13d" d="M148.94 473.32H50.86a22 22 0 0 0-22 22v4h142.08v-4a22 22 0 0 0-22-22z" data-original="#d3a13d"></path><path fill="#a07d6d" d="M113.41 301.48H85.9v147.28h28V301.48z" data-original="#a07d6d"></path><path fill="#c79a83" d="M85.9 43.76v257.72H113.9V43.76z" data-original="#c79a83"></path><path fill="#edb740" d="M119.91 447.31H79.89a22.013 22.013 0 0 0-22.02 22.01v4h84.05v-4a22 22 0 0 0-22.01-22.01zM99.9 13.33a27.748 27.748 0 0 0-28 27.5v4.5h56v-4.5a27.755 27.755 0 0 0-28-27.5z" data-original="#edb740"></path><path fill="#ef1322" d="M483.02 231.85v54.22a4 4 0 0 1-4 4h-372a4 4 0 0 1-4-4v-54.22zM483.02 60.58v54.22h-380V60.58a4 4 0 0 1 4-4h372a4 4 0 0 1 4 4z" data-original="#ef1322" class=""></path><path fill="#f4f8fc" d="M483.02 114.8v117.05h-380V114.8z" data-original="#f4f8fc" class=""></path><path fill="#00a652" d="M241.69 195.48a4.465 4.465 0 0 1 1.67.16c1.51.25 2.52-.41 6.08-3.98a40.475 40.475 0 0 1 8.94-6.69c3.88-1.96 4.65-2.62 4.65-4.02a4.964 4.964 0 0 0-1.25-2.95c-1.2-1.14-1.36-1.1-4.33.99-1.69 1.15-3.78 2.13-4.64 2.13a5.9 5.9 0 0 1-3.57-1.72l-.02-.04a.231.231 0 0 0-.02-.09h.02s-.02-.04 0-.04v-.04h.02v-.04a1.064 1.064 0 0 1 .35-.03c.43-.04 2.33-1.61 4.22-3.49 3.95-3.94 4.89-4.56 7.92-5.22a10.758 10.758 0 0 0 3.77-1.42 3.442 3.442 0 0 0 1.81-3.02v-.04a3.442 3.442 0 0 0-3.7-3.41c-4.35.26-6.38-1.3-6.26-2.46v-.01c.32-.98 5.31-4.35 9.19-6.12 2.34-1.11 3.45-2.05 3.72-3.17.38-1.72 3.26-3.77 5.26-3.77 1.67 0 2.07-.66 1.38-2.13-.5-.99-1.08-1.18-2.49-.86a2.773 2.773 0 0 1-1.79-.04h-.06s0-.04-.01-.04h-.02v-.05l-.02-.04v-.12l.02-.03a.3.3 0 0 0 .02-.09c.43-.9 3.69-3.32 5.87-4.23 2.31-.93 4.17-1.15 4.41-2.18.02 0 .02-.04.02-.04v-.04l-4.35-1.06 1.6-1.93a32.839 32.839 0 0 1 4.84-4.22 20.271 20.271 0 0 0 5-5.17l1.68-2.79 1.24 2.75c1.41 3.21 4.9 6.85 6.98 7.3.78.21 3.02.7 4.95 1.12 2.58.56 4.85 1.76 8.52 4.62l5.02 3.81-3.51-.15a10.345 10.345 0 0 0-3.42.12v.03h-.04v.09l.04.04c.47 1.03 6.74 5.46 9.04 6.41l2.3.93-3.48.04a14.945 14.945 0 0 1-4.16-.6 1.967 1.967 0 0 0-1.76.26l-.21.15a1.927 1.927 0 0 0 0 3.13 39.463 39.463 0 0 1 4.14 3.43 52.927 52.927 0 0 0 9.8 6.97c3.79 2.09 5.49 3.32 5.11 3.85-.38.41-2.41.24-6.13-.32-3.31-.58-3.23-.67-3.63-.21a1.777 1.777 0 0 0-.39.74v.16a.464.464 0 0 0 .08.25c.33.65-.35 1.27 2.05 1.72 2 .46 5.61 1.43 7.99 2.18 6 1.96 4.79 2.99-3.9 3.32-6.44.25-6.72.94-5.96 2.29h.05a.174.174 0 0 1 .01.09c.34.32-.51.52.76.52a8.925 8.925 0 0 1 6.95 3.21 45.85 45.85 0 0 0 5.81 5.2l4.94 4.07-2.24.49c-1.77.33-3.02 0-5.74-1.48-3.4-1.92-3.52-1.96-5.69-.82-3.76 1.98-2.92 3.2 5.28 7.55 8.22 4.44 12.59 8.03 11.93 9.88-.53 1.61-2.87 1.48-5.18-.28-1.02-.78-3.6-2.38-5.69-3.61-3.71-2.22-3.92-2.26-11.32-2.05-6.91.08-6.82 1.02-9.85-.59-4.03-2.09-4.92-2.17-6.56-.32-1.05 1.11-1.28 2.3-1.26 6.77.03 7.51.02 8.45 6.49 13.91 2.85 2.38 5.24 4.63 5.38 5.08v.13c-.05.24-.3.45-.67.61h-1.6a9.583 9.583 0 0 1-2.9-2.54c-2.03-2.39-2.68-2.88-5.32-3.25a5.959 5.959 0 0 0-2.93.32l-.29.11a2.8 2.8 0 0 0-1.69 3.13.574.574 0 0 1 .01.18v.08l-.02.05-.02.04v.04h-.04v.03h-.01l-.02.05h-.19c-.36 0-1.03-.42-1.94-1.32-.45-.41-.97-.86-1.51-1.3a12.574 12.574 0 0 0-4.86-2.46l-1.39-.36a15.888 15.888 0 0 0-4.13-.36 3.4 3.4 0 0 1-1.77-.53c-1.89-1.11-4.4-.41-6.89 1.93-2.87 2.63-5.63 2.26-8.7 2.31a8.9 8.9 0 0 0-7.06 3.12 4.616 4.616 0 0 1-.75.73h-1.13a1.055 1.055 0 0 1-.06-.24c0-1.16 3.37-4.31 5-4.71a15.493 15.493 0 0 0 9.6-6.04c6.29-7.91 5.75-11.7.5-14.4-2.23-1.24-2.25-1.24-8.7 1.68a57.3 57.3 0 0 1-8.6 2.88c-4.36 1.31-9.42 1.27-10.46-.09-.41-.57-.61-1.18-.46-1.39v-.05l.02-.04h.02c.41-.24 3.48-1.27 7.06-2.37 4.81-1.43 14.92-5.25 9.7-8.33-1.98-1.14-2.34-.82-4.82 1.07-2.66 1.97-11.28 5.17-14 5.17a4.254 4.254 0 0 1-2.81-1.07c-.58-.65-.91-1.03-.91-1.19v-.04c.03-.04.03-.05.03-.05h.02z" data-original="#00a652"></path><path fill="#c91728" d="M133.02 286.07v-54.22h-30v54.22a4 4 0 0 0 4 4h30a4 4 0 0 1-4-4zM133.02 60.58a4 4 0 0 1 4-4h-30a4 4 0 0 0-4 4v54.22h30z" data-original="#c91728"></path><path fill="#dae1e5" d="M103.02 114.8h30v117.05h-30z" data-original="#dae1e5"></path></g></svg>